PathFileType	4	(X/Y/Z)	Kaydara																																																																																																																									
DataRate	CameraRate	NumFrames	NumMarkers	Units	OrigDataRate	OrigDataStartFrame	OrigNumFrames																																																																																																																					
30	30	4	41	mm	30	117	232																																																																																																																					
Frame#	Time	EMLA_LFHD			EMLA_RFHD			EMLA_LBHD			EMLA_RBHD			EMLA_LFTShould			EMLA_RFTShould			EMLA_LRRShould			EMLA_RRRShould			EMLA_T10			EMLA_STRN			EMLA_TRUN			EMLA_LSHO			EMLA_LUPA			EMLA_LELB			EMLA_LFRM			EMLA_LWRA			EMLA_LWRB			EMLA_LFIN			EMLA_RSHO			EMLA_RUPA			EMLA_RELB			EMLA_RFRM			EMLA_RWRA			EMLA_RWRB			EMLA_RFIN			EMLA_LFWT			EMLA_RFWT			EMLA_LBWT			EMLA_RBWT			EMLA_LTHI			EMLA_LKNE			EMLA_LSHN			EMLA_LANK			EMLA_LHEE			EMLA_LTOE			EMLA_RTHI			EMLA_RKNE			EMLA_RSHN			EMLA_RANK			EMLA_RHEE			EMLA_RTOE		
		X1	Y1	Z1	X2	Y2	Z2	X3	Y3	Z3	X4	Y4	Z4	X5	Y5	Z5	X6	Y6	Z6	X7	Y7	Z7	X8	Y8	Z8	X9	Y9	Z9	X10	Y10	Z10	X11	Y11	Z11	X12	Y12	Z12	X13	Y13	Z13	X14	Y14	Z14	X15	Y15	Z15	X16	Y16	Z16	X17	Y17	Z17	X18	Y18	Z18	X19	Y19	Z19	X20	Y20	Z20	X21	Y21	Z21	X22	Y22	Z22	X23	Y23	Z23	X24	Y24	Z24	X25	Y25	Z25	X26	Y26	Z26	X27	Y27	Z27	X28	Y28	Z28	X29	Y29	Z29	X30	Y30	Z30	X31	Y31	Z31	X32	Y32	Z32	X33	Y33	Z33	X34	Y34	Z34	X35	Y35	Z35	X36	Y36	Z36	X37	Y37	Z37	X38	Y38	Z38	X39	Y39	Z39	X40	Y40	Z40	X41	Y41	Z41
																																																																																																																												
117	3.877	244.53279	1633.7619	-1949.24286	74.70724	1630.70618	-1956.33408	263.99723	1625.21149	-2100.42145	69.68261	1624.47617	-2109.32831	248.2786	1402.30972	-2011.70349	98.21237	1393.28796	-2005.59845	237.3098	1447.44827	-2160.65475	81.79298	1438.02673	-2153.71948	171.52847	1270.13649	-2199.67285	174.2136	1333.40973	-1969.42902	170.35774	1230.71877	-1945.94788	371.32313	1423.49213	-2069.28864	429.0839	1241.56792	-2081.68915	450.08213	1097.92274	-2081.09848	449.01299	961.47888	-2065.38849	364.50691	825.21027	-1975.82489	423.20404	801.45172	-2032.16324	415.67726	773.33702	-1967.63077	-25.50121	1422.07367	-2066.86966	-78.14746	1226.25046	-2051.8428	-92.40085	1079.6991	-2058.95111	-90.67318	979.6125	-2054.97711	-13.43508	831.31981	-1941.33041	-61.74451	804.31122	-2006.07498	-71.25614	779.43932	-1947.28516	275.70919	992.57774	-1961.80527	40.26453	977.60925	-1974.99802	254.57058	1013.05138	-2160.97321	79.31149	1011.61102	-2156.2941	300.19104	726.91376	-2148.63174	306.13623	523.57979	-2110.25681	277.97237	342.33112	-2101.79245	280.15146	166.29944	-2176.49002	215.08358	86.01376	-2236.76666	246.77334	74.36428	-2037.64664	53.36047	713.013	-2170.80566	21.77803	510.83096	-2118.20328	67.37912	289.37538	-2118.00339	34.48618	131.30423	-2204.09378	92.908	78.55777	-2256.48804	52.56199	71.952	-2056.32904
118	3.91	244.48978	1633.84476	-1949.39728	74.60178	1630.73105	-1956.47903	263.8945	1625.14313	-2100.50858	69.58664	1624.39117	-2109.47678	248.05492	1402.22137	-2011.71494	98.09067	1393.40073	-2005.76157	237.21283	1447.41318	-2160.74997	81.68238	1438.00919	-2153.76785	171.38714	1270.09384	-2199.72931	174.22932	1333.56415	-1969.38721	170.34569	1230.8181	-1945.94757	371.23295	1423.4549	-2069.39087	428.9463	1241.49353	-2081.68457	449.89765	1097.79953	-2081.08932	448.77926	961.4138	-2065.40314	364.20597	825.19455	-1975.8107	422.91458	801.43326	-2032.17133	415.34058	773.33916	-1967.63397	-25.61625	1422.10052	-2066.92169	-78.55317	1226.40305	-2052.03827	-92.61258	1079.78493	-2058.918	-90.93493	979.65958	-2054.88037	-13.64686	831.54594	-1941.07788	-62.00624	804.38454	-2005.89615	-71.55788	779.53209	-1947.11685	275.66427	992.42271	-1961.85455	40.13463	977.58713	-1974.9118	254.3947	1013.03551	-2160.97488	79.10856	1011.60683	-2156.25885	300.04648	726.92085	-2148.64288	306.06253	523.57094	-2110.25314	277.87537	342.29012	-2101.75079	280.12333	166.28986	-2176.47369	215.14271	85.8851	-2236.6214	246.76998	74.37891	-2037.61551	53.15736	713.07289	-2170.92407	21.69497	510.85304	-2118.27423	67.30432	289.37189	-2118.04108	34.43759	131.29763	-2204.1214	92.90285	78.55874	-2256.49445	52.57781	71.93995	-2056.32782
119	3.943	244.24994	1633.80356	-1949.4455	74.46988	1630.72083	-1956.66016	263.8483	1625.15198	-2100.61752	69.54563	1624.33838	-2109.58969	248.13961	1402.26196	-2011.75842	97.86427	1393.46756	-2005.98022	237.16038	1447.43271	-2160.85175	81.58544	1438.08197	-2153.83408	171.25854	1270.11322	-2199.77646	174.41891	1333.26294	-1969.25171	170.19541	1230.81306	-1946.04019	371.17096	1423.43567	-2069.44565	428.8541	1241.42204	-2081.66611	449.74438	1097.74948	-2081.03424	448.66737	961.39709	-2065.3653	364.06296	825.11986	-1975.8989	422.76356	801.33842	-2032.15546	415.21687	773.24417	-1967.65945	-25.68947	1422.2113	-2066.9368	-78.69943	1226.50818	-2051.9194	-92.80861	1079.87183	-2058.77335	-91.22204	979.79813	-2054.75037	-13.92744	831.63681	-1940.92133	-62.36422	804.49867	-2005.71106	-71.86126	779.65927	-1946.89407	275.36863	992.60078	-1961.77292	39.96947	977.61406	-1974.90723	254.25016	1013.04161	-2160.97137	78.97523	1011.65215	-2156.28677	299.98392	726.90025	-2148.66302	305.95016	523.55637	-2110.30731	277.84092	342.31735	-2101.81	280.12657	166.30646	-2176.4476	214.98215	86.04787	-2236.79352	246.74932	74.37721	-2037.62497	53.05392	713.07953	-2171.00891	21.60504	510.82344	-2118.27179	67.29144	289.34513	-2118.07343	34.42067	131.30284	-2204.11377	92.86748	78.53308	-2256.50955	52.5399	71.97541	-2056.34491
120	3.977	244.29752	1633.78555	-1949.54407	74.6268	1630.75165	-1956.61133	263.81218	1625.07294	-2100.66559	69.5502	1624.38431	-2109.61731	247.91138	1402.19116	-2011.7688	97.95436	1393.40271	-2005.60928	237.02909	1447.40524	-2160.90042	81.47026	1438.11752	-2153.82446	171.06876	1270.12161	-2199.80225	174.66349	1333.16574	-1969.07318	170.07664	1230.80536	-1946.03058	371.07578	1423.41873	-2069.52698	428.7661	1241.46484	-2081.69998	449.66278	1097.76375	-2081.06262	448.63174	961.39359	-2065.42084	364.11823	825.15976	-1975.84686	422.78976	801.36238	-2032.17682	415.33791	773.27705	-1967.74399	-25.75525	1422.3259	-2066.87332	-78.82685	1226.71318	-2051.79779	-93.05456	1080.0515	-2058.59253	-91.4927	979.97086	-2054.54468	-14.2178	831.7643	-1940.77713	-62.67474	804.64493	-2005.5188	-72.16847	779.83391	-1946.67007	275.11719	992.60551	-1961.75049	39.79622	977.53471	-1974.99161	254.19535	1013.1002	-2160.98572	78.90112	1011.63795	-2156.34415	299.91125	726.95862	-2148.71201	305.86285	523.55911	-2110.36774	277.77819	342.33631	-2101.85516	280.11253	166.2924	-2176.48788	215.18393	85.73783	-2236.63193	246.73044	74.38585	-2037.62939	53.04468	713.02773	-2170.98938	21.51758	510.79479	-2118.27545	67.19375	289.34422	-2118.02124	34.38576	131.254	-2204.13803	92.85937	78.50558	-2256.51306	52.54731	71.95192	-2056.3501
